<?xml version="1.0" encoding="UTF-8"?>
<!DOCTYPE svg PUBLIC "-//W3C//DTD SVG 1.1//EN" "http://www.w3.org/Graphics/SVG/1.1/DTD/svg11.dtd">
<!-- Creator: CorelDRAW X8 -->
<svg xmlns="http://www.w3.org/2000/svg" xml:space="preserve" width="169.333mm" height="211.667mm" version="1.1" style="shape-rendering:geometricPrecision; text-rendering:geometricPrecision; image-rendering:optimizeQuality; fill-rule:evenodd; clip-rule:evenodd"
viewBox="0 0 16933 21167"
 xmlns:xlink="http://www.w3.org/1999/xlink">
 <defs>
  <style type="text/css">
   <![CDATA[
    .fil0 {fill:white}
   ]]>
  </style>
 </defs>
 <g id="Camada_x0020_1">
  <metadata id="CorelCorpID_0Corel-Layer"/>
  <g id="_1815546321664">
   <path class="fil0" d="M9076 18567l-127 9c-74,4 -162,17 -249,3l-240 -14c-110,-12 -25,18 -149,-232 -17,-35 -25,-50 -46,-81 -20,-29 -29,-47 -47,-79 -62,-104 -186,-420 -217,-545 -136,-552 139,-888 336,-1307 53,-114 141,-399 172,-522 58,-226 72,-367 109,-586 30,-178 69,-650 69,-854l93 0 17 314c-2,169 58,563 84,754 7,55 18,88 27,142 15,92 38,181 60,270 81,328 136,443 283,733 84,165 154,278 205,465 12,46 19,82 29,131 31,156 24,301 -9,453 -22,104 -54,154 -82,248 -26,92 -61,165 -97,242 -17,39 -38,76 -60,109l-65 105c-38,70 -76,158 -96,242zm-3581 -2819c-375,0 -685,-124 -891,-430 -37,-56 -132,-226 -134,-307l605 -148c426,-93 808,-188 1246,-262l486 -81c53,-5 121,-14 170,-25 -1,40 -19,102 -29,140 -44,152 -65,224 -138,371 -197,396 -509,613 -933,692 -28,5 -38,11 -68,17 -86,18 -211,33 -314,33zm4987 -1253l8 -2c52,0 550,88 629,101 349,61 611,120 945,189 290,61 636,153 924,220 -7,81 -92,236 -128,296 -162,271 -482,441 -837,441 -145,0 -260,0 -398,-34 -118,-29 -133,-25 -272,-67 -39,-12 -84,-31 -121,-49l-210 -129c-36,-27 -59,-52 -92,-77 -41,-32 -133,-142 -159,-180l-68 -101c-117,-186 -161,-344 -213,-549l-8 -59zm-2854 2675c0,208 -3,171 50,366 34,128 273,829 340,955 -51,-1 -126,-25 -173,-39 -62,-17 -107,-27 -165,-47l-315 -107c-103,-38 -267,-118 -367,-159 -226,-93 -539,-285 -755,-413 -133,-78 -256,-167 -382,-252 -45,-31 -85,-62 -129,-92 99,-187 291,-313 464,-425 280,-181 575,-275 883,-378 174,-59 200,-66 358,-176 40,-27 65,-56 102,-84 36,-29 60,-54 92,-86 62,-65 190,-233 231,-302 13,-22 17,-34 31,-54 53,-83 109,-208 150,-298 37,-82 124,-336 138,-405l37 -141c56,-245 73,-368 103,-616 5,-47 -5,-46 43,-50 38,-3 51,-8 86,-8 0,133 -78,721 -93,813 -25,148 -62,308 -104,456 -46,163 -82,265 -148,419l-156 301c-30,48 -58,92 -86,142l-121 218c-15,33 -25,53 -37,81 -45,100 -77,238 -77,381zm1406 -2811c29,0 54,3 77,8 49,10 23,-7 45,133 23,140 28,227 61,388 56,281 110,444 208,689 91,230 211,419 368,605 19,22 22,29 43,51l141 130c21,16 33,24 54,39 61,47 152,103 223,132l400 134c255,86 497,207 720,355 128,85 289,224 361,359 -252,169 -354,249 -646,412 -215,120 -479,260 -703,356 -195,83 -395,179 -600,247 -29,10 -46,18 -74,28l-246 75 251 -698c16,-50 29,-98 48,-147 20,-53 73,-251 73,-315 0,-413 -19,-478 -249,-860 -58,-97 -111,-183 -163,-286 -114,-230 -148,-339 -217,-570 -38,-125 -113,-524 -131,-657 -19,-149 -48,-420 -55,-573 0,-16 -9,-35 11,-35zm-5453 -321c72,-48 202,-103 288,-110 0,215 -21,904 2,1073 8,55 39,108 96,125 54,17 289,-71 368,-72 4,167 97,374 172,513 262,485 964,767 1582,691 441,-55 856,-322 1126,-653 19,-23 33,-41 52,-66 35,-47 66,-91 97,-140 63,-98 118,-197 171,-303 90,-179 210,-505 254,-694 87,0 76,-54 22,191 -72,327 -186,668 -335,969 -84,170 -205,353 -362,459l-215 115c-415,199 -765,369 -1097,698l-76 85c-26,30 -52,63 -73,96 -37,60 -101,150 -116,215 -59,-40 -101,-78 -157,-122l-544 -524c-209,-235 -235,-290 -410,-529 -121,-165 -299,-481 -402,-665l-324 -607c-19,-39 -90,-157 -93,-195 45,-16 21,-76 17,-119 -4,-50 -4,-98 -11,-150l-32 -281zm10016 -119c122,0 253,116 297,127 -45,193 -44,229 -42,432 0,89 -1,72 -27,134 -15,36 -33,74 -50,111l-321 644c-52,104 -296,498 -368,598l-135 186c-25,35 -44,58 -70,92l-179 218c-65,67 -111,129 -195,212 -30,30 -45,54 -76,85l-410 393c-19,19 -24,20 -42,35 -23,19 -19,27 -49,35 -121,-228 -215,-369 -429,-537 -223,-175 -322,-238 -588,-377l-479 -240c-131,-66 -212,-146 -301,-267 -133,-181 -240,-429 -317,-648 -28,-81 -56,-165 -77,-244l-129 -515c84,2 47,-4 88,123l122 353c22,58 48,105 73,164 44,107 110,216 165,309 110,186 265,372 430,510 46,39 81,70 133,104 251,167 573,308 877,308 210,0 385,-5 587,-72 338,-114 584,-237 805,-542 23,-32 47,-68 67,-102 41,-75 75,-148 104,-235 25,-75 55,-190 62,-276 46,4 277,76 390,76 120,0 101,-1157 84,-1194zm-12242 -169c84,-74 702,-415 815,-471 196,-98 702,-342 946,-342l94 261c143,404 253,857 253,1288 -186,16 -861,211 -1033,288 -64,28 -126,50 -189,82 -87,44 -217,109 -295,171 -23,19 -10,18 -41,27 121,-229 305,-501 468,-701 45,-55 88,-101 132,-156 38,-47 102,-103 147,-149 58,-58 219,-186 288,-229 1,0 21,-12 21,-12 16,-13 12,-3 19,-23 -12,-6 -172,-31 -195,-34 -68,-7 -143,-15 -205,-23 -36,-5 -67,-2 -103,-7 -295,-43 -702,-25 -997,11 -47,6 -86,16 -125,19zm14224 1278c-25,-6 -104,-74 -159,-104 -213,-118 -312,-157 -551,-244l-305 -94c-33,-8 -69,-17 -107,-28 -38,-11 -61,-15 -102,-24l-222 -50c-30,-6 -76,-20 -112,-23 0,-257 64,-669 139,-928 56,-196 82,-258 146,-447 11,-35 18,-53 32,-86 13,-32 27,-50 30,-88 166,0 564,153 722,234 38,19 76,36 109,52 21,10 32,13 52,24 14,8 15,9 27,16l446 239c71,43 371,213 397,247 -45,-1 -101,-19 -146,-24 -427,-45 -864,-28 -1281,29 -233,33 -237,7 -75,117 105,73 252,209 340,304l460 606c57,91 109,177 160,272zm-2117 -1346l0 644c0,57 8,77 9,126 1,90 -1,181 -1,272 0,136 40,257 -216,182l-1507 -338c-94,-21 -186,-39 -281,-58l-713 -125 -754 -93c-181,-3 -397,-43 -626,-43 -113,1 -210,-8 -331,-8 -67,0 -99,-9 -160,-9 -146,1 -538,3 -654,16 -53,6 -110,-3 -164,5 -127,19 -440,29 -622,55 -97,14 -204,19 -298,33 -98,14 -204,28 -297,41 -532,76 -972,163 -1498,271l-210 45c-43,11 -85,17 -132,29l-274 64c-48,11 -91,23 -135,34 -91,24 -186,44 -273,66 -50,13 -238,61 -278,61 -27,0 -51,-37 -51,-68l0 -1718c0,-88 46,-188 117,-231 40,-25 85,-27 131,-38 49,-12 94,-25 143,-35l1131 -257c20,-4 47,-10 69,-16l519 -99c239,-40 499,-91 741,-123 325,-42 596,-82 933,-108 163,-12 323,-33 492,-33 69,0 111,-9 169,-9l330 0c292,0 905,33 1173,73l264 31c203,26 951,133 1165,182 245,57 553,103 804,161l311 71c55,11 101,23 158,36 153,35 501,126 625,145 57,10 112,19 143,52 59,64 56,211 56,333 1,75 -8,115 -8,186 0,65 0,130 0,195zm-6494 -1719l0 0zm0 0c-63,-14 -113,-50 -169,-76 -458,-205 -787,-166 -990,-238 -105,-37 -236,-127 -246,-253 -27,20 -13,-6 -18,34 -2,18 1,40 4,56 38,200 242,336 421,400l178 51c150,45 380,153 380,331 -56,1 -203,31 -262,43 -345,70 -679,131 -1022,206l-682 164c-29,7 -40,13 -66,19 -6,-67 -11,-106 14,-172 48,-122 187,-271 -16,-419 -164,-118 -491,-116 -658,-51 -102,39 -173,86 -257,148 -94,70 -186,163 -257,252 -60,77 -119,153 -166,240 -29,51 -163,74 -218,87l-327 -1452c-35,-174 -54,-340 -89,-512 -16,-81 -24,-175 -41,-255 -25,-127 -37,-250 -56,-384 -40,-289 -73,-581 -96,-869 -2,-25 1,-51 -1,-75 -7,-83 -24,-187 -25,-271 -1,-86 -1,-212 -13,-292 -17,-109 -12,-453 -12,-581 0,-55 -9,-76 -9,-135 1,-138 -16,-315 4,-445 11,-74 6,-538 21,-716 4,-49 -4,-100 3,-149l40 -705c11,-220 54,-452 84,-670 12,-88 28,-173 40,-256l44 -254c9,-68 -72,-134 -111,-182 -25,-30 -43,-53 -68,-84 -23,-28 -57,-54 -65,-87l224 38c80,11 161,16 250,13 175,-5 170,-58 247,-142 60,-65 316,-221 393,-268 56,-35 105,-65 161,-102l323 -201c28,-17 52,-31 80,-47 30,-19 52,-34 85,-50 368,-183 733,-323 1129,-455l1023 -289c40,-11 57,-17 101,-26 42,-8 73,-13 112,-24 229,-66 642,-126 889,-161l467 -57c129,-19 608,-41 747,-41 90,0 181,0 271,0 143,0 749,23 875,40 48,7 73,8 123,12 161,12 316,34 474,51 647,71 1516,275 2148,485l286 103c41,14 65,22 99,37l375 150c63,28 118,53 181,82l261 128c31,13 58,32 89,47 167,82 341,191 480,315 169,151 403,393 620,430 116,20 347,-1 458,-59 -7,26 -38,65 -55,89l-122 175c-35,52 -45,34 -37,101l94 795c6,48 15,82 18,127l29 267c7,47 10,84 17,135l47 546c3,100 9,182 9,288 -1,102 8,180 8,288l0 440c0,61 -9,84 -9,144 1,84 9,215 -3,292l-14 283c1,104 -16,191 -17,288 -1,150 -20,410 -33,559 -4,47 -5,83 -9,135l-33 416c-21,178 -27,371 -49,544 -12,93 -20,176 -28,268l-108 638c-55,328 -222,998 -331,1302 -17,49 -65,191 -69,236 -42,-1 -94,-24 -130,-39 -84,-32 -66,4 -107,-70 -37,-67 -101,-147 -154,-202l-174 -173c-33,-31 -59,-56 -97,-81 -37,-26 -65,-50 -106,-72 -169,-95 -351,-163 -556,-120 -103,22 -187,45 -253,103 -205,181 69,396 18,534 -10,27 -33,18 -58,12 -216,-50 -432,-111 -651,-155l-579 -124c-51,-10 -98,-17 -148,-29 -144,-34 -310,-49 -452,-82 -43,-9 -108,-23 -151,-27 1,-32 12,-61 23,-87 56,-133 309,-231 446,-265 189,-47 399,-153 485,-336 19,-41 62,-153 20,-184 -9,36 -19,57 -34,85 -11,21 -36,58 -53,74 -156,140 -384,137 -579,166 -71,11 -133,27 -201,44l-197 58c-32,13 -55,20 -87,31 -78,30 -189,101 -263,118 106,-200 349,-241 558,-347 22,-11 39,-18 64,-30l487 -250c89,-59 180,-125 256,-201 20,-20 25,-21 46,-38 18,-15 31,-30 47,-46 69,-69 243,-216 243,-316 -29,8 -119,99 -153,126 -13,11 -18,17 -32,28l-131 97c-154,106 -279,167 -455,231 -31,11 -54,22 -85,34 -31,11 -43,20 -78,32l-334 122c-276,92 -464,100 -722,311 -64,52 -117,107 -166,173 -46,61 -106,163 -113,243 -42,-10 -65,-8 -118,-8 -43,-90 -6,-259 8,-347 26,-158 94,-296 161,-432 52,-104 225,-355 229,-373 -63,43 -109,106 -159,163 -87,99 -154,206 -220,323 -84,151 -222,462 -222,640l-170 -8c1,-24 9,-84 13,-114l69 -313c108,-437 324,-864 582,-1221 186,-256 379,-465 600,-687 47,-46 249,-217 269,-247 -104,8 -537,353 -642,459 -46,46 -99,83 -137,133 -21,27 -41,45 -66,70l-197 227c-386,495 -669,1061 -812,1676 -138,0 -245,-8 -381,-8 -141,0 -252,8 -390,8 -5,-66 -36,-147 -56,-215 -62,-210 -139,-408 -229,-601l-240 -446c-127,-192 -256,-383 -413,-552l-452 -436c-86,-75 -183,-143 -278,-205 -32,-22 -143,-94 -178,-102 11,42 158,147 197,184 24,23 41,41 64,64 171,171 341,341 488,536 76,101 146,195 215,301 17,28 32,50 49,79 18,29 32,49 48,78 158,284 249,492 352,800 13,37 20,55 29,98 30,145 82,282 82,434 -34,8 -39,9 -84,8 -45,0 -52,6 -85,9 -13,-56 -19,-121 -36,-176l-54 -166c-10,-29 -14,-48 -26,-76 -12,-28 -21,-45 -34,-76 -71,-167 -175,-323 -289,-464 -9,-12 -14,-15 -24,-27 -34,-40 -92,-117 -138,-141 9,39 14,31 35,58 15,18 28,41 41,60 64,96 130,198 180,303 55,114 102,235 130,361 42,193 20,212 20,361 -43,0 -72,8 -127,8 -9,-108 -98,-215 -161,-296 -59,-77 -165,-151 -252,-205 -95,-59 -208,-111 -318,-139l-351 -106c-170,-61 -330,-130 -500,-186l-118 -51c-149,-71 -285,-170 -410,-276 -16,-13 -18,-12 -34,-26 -30,-26 -94,-95 -125,-103 2,74 103,174 146,218l332 303c72,57 146,103 228,145 27,13 33,20 60,33 43,21 76,36 118,59 47,26 79,37 127,60 121,58 243,127 373,169 103,34 289,132 318,240zm-4386 -7755c-103,0 -213,-2 -309,-21 -222,-42 -254,-54 -454,-104 -37,-9 -58,-20 -92,-27 11,44 83,123 115,164l423 560c27,42 -12,183 -20,233l-50 374c-11,91 -15,176 -27,261 -24,164 -24,343 -48,511l-54 1072c0,245 -22,580 -9,821 2,37 9,40 9,84 3,235 -7,461 18,693 22,199 21,469 47,673l173 1436 80 453c41,202 67,400 123,597l211 873c-77,40 -272,108 -376,158 -440,213 -664,336 -1082,619 -107,72 -213,148 -310,233 -20,18 -37,22 -44,48l390 -42c67,-5 132,-4 198,-13 89,-13 361,-17 409,-23 137,-19 502,-6 654,-6l-73 88c-25,33 -47,57 -72,88 -325,408 -461,633 -708,1071 -13,24 -16,24 -26,49 -40,95 -105,185 -129,287 9,-2 324,-212 395,-249 239,-121 416,-196 670,-296 122,-48 239,-78 363,-119 45,-15 78,-22 125,-36 67,-20 198,-66 259,-71 10,41 29,69 46,107 18,39 31,65 50,102 134,269 278,530 436,784l372 542 304 381c16,19 16,24 35,42 29,30 43,52 72,81l144 160c113,135 398,388 550,517 32,26 58,48 91,70 -2,94 -51,182 -51,474 0,337 186,643 534,643 50,0 76,-4 124,-10 11,-2 38,-6 59,-10 40,-6 36,2 54,-22 -88,0 -196,-22 -273,-57 -213,-98 -280,-288 -293,-520 -5,-73 13,-181 25,-252 4,-26 13,-58 16,-85 43,11 210,144 263,177l412 248c92,55 479,240 592,297 99,50 202,97 309,132l503 165c122,33 245,53 368,81 3,46 32,102 44,151 85,349 -39,647 -368,805 -57,27 -112,50 -173,63 0,0 -33,9 -33,9 -19,10 -14,2 -21,22 18,-8 150,-18 186,-26 108,-23 210,-63 300,-123 58,-38 75,-51 122,-98 40,-41 65,-64 100,-112 95,-132 164,-311 164,-479l0 -169c54,0 71,8 127,8l415 0c43,0 38,-7 76,-8 0,328 44,557 248,760 43,43 67,67 118,102 147,100 321,162 515,162l0 -17c-102,0 -255,-81 -343,-139 -37,-24 -58,-48 -89,-72 -24,-19 -18,-14 -37,-39 -16,-21 -26,-26 -41,-45 -127,-158 -134,-392 -89,-583 7,-32 41,-166 73,-182l396 -111c64,-22 115,-45 180,-66 183,-61 365,-140 542,-219 424,-189 823,-424 1208,-681 30,-20 45,-39 80,-47 1,77 42,171 42,296 0,131 0,236 -46,352 -80,203 -300,300 -513,300 19,26 68,25 105,31 322,46 529,-94 624,-377 108,-319 -18,-692 -18,-738 0,-27 135,-123 156,-140 85,-67 173,-132 249,-209l529 -537c18,-19 18,-24 34,-42 15,-18 19,-22 35,-42 24,-30 45,-52 69,-83 112,-144 221,-290 314,-448l383 -684c45,-105 146,-289 201,-408 33,-72 61,-143 96,-209 34,1 99,18 134,27l259 79c250,70 755,315 981,442l489 273c-6,-66 -78,-222 -110,-288 -10,-20 -16,-39 -26,-59 -190,-407 -483,-818 -802,-1137 -27,-27 -68,-51 -78,-91 145,-33 471,-17 635,-17 135,0 258,15 398,17l538 29c34,5 100,14 131,14 -12,-44 -162,-141 -199,-166 -144,-100 -288,-198 -439,-289 -194,-115 -394,-218 -596,-319l-248 -116c-87,-38 -323,-154 -398,-160 1,-44 222,-800 256,-972 10,-48 22,-94 34,-144 21,-92 40,-189 59,-287 69,-354 129,-706 166,-1062 6,-60 5,-107 11,-167l67 -814c0,-44 4,-121 10,-167 28,-209 24,-443 48,-656 6,-57 -3,-114 6,-171 4,-31 2,-50 3,-81 2,-38 9,-41 9,-85 2,-123 8,-220 8,-347l0 -728c0,-155 -2,-309 -18,-456 -5,-47 -3,-99 -8,-153 -7,-92 -19,-204 -24,-297 -3,-56 -11,-98 -16,-145 -6,-57 -5,-93 -12,-149l-31 -283c-8,-102 -18,-196 -26,-295l-59 -584c0,-40 95,-154 122,-192l271 -372c28,-40 119,-144 132,-190 -30,2 -64,13 -99,20l-557 162c-151,50 -307,5 -440,-61 -40,-19 -44,-25 -78,-48l-200 -164c-92,-81 -93,-86 -205,-168 -45,-32 -102,-72 -149,-97 -28,-15 -44,-28 -73,-45l-246 -135c-277,-138 -558,-270 -848,-380 -29,-10 -49,-22 -85,-33 -155,-51 -304,-119 -461,-165 -71,-21 -118,-38 -188,-58l-378 -113c-365,-100 -1064,-259 -1429,-298 -71,-8 -144,-19 -215,-31 -179,-28 -744,-71 -911,-71 -61,0 -126,7 -186,0 -50,-5 -19,-17 -51,-17l-237 0c-13,0 -36,18 -102,17l-476 15c-57,8 -214,3 -357,24l-1315 175c-67,12 -134,29 -203,42 -69,14 -144,33 -208,47 -73,15 -127,30 -198,48 -69,17 -133,32 -201,52 -220,66 -441,130 -656,208 -30,11 -52,23 -91,36 -183,59 -355,139 -531,214 -59,26 -114,56 -173,81 -36,16 -50,27 -79,39l-170 84c-356,168 -688,393 -1013,613 -102,70 -179,151 -349,151z"/>
   <path class="fil0" d="M4225 7290l-63 -90c-291,-444 -294,-1044 -149,-1544l139 -395c17,-41 47,-82 56,-122 -30,20 -42,49 -62,82 -167,280 -318,575 -399,897l-55 232c-21,83 -25,155 -39,249 -48,331 -14,684 62,1006 10,43 20,70 31,113 12,48 19,67 35,109 15,39 22,72 36,107 14,34 23,64 38,98 87,194 176,388 305,559 19,26 48,58 56,87 -70,-37 -127,-67 -193,-111 -181,-124 -328,-282 -459,-456 -129,-172 -187,-302 -279,-483 -17,-33 -31,-67 -47,-105 -17,-39 -29,-69 -44,-108l-27 -83c-7,-14 -9,-15 -17,-25 0,158 100,540 147,682 17,53 31,101 51,152 11,29 16,45 27,75 60,176 149,337 237,499 109,200 250,372 391,549 104,129 248,256 372,364 151,132 318,246 490,349 210,127 471,265 707,343 214,71 422,141 647,191 100,21 259,62 360,64l0 -17c-115,-10 -350,-92 -466,-144 -321,-144 -496,-245 -784,-444l-232 -174c-38,-30 -79,-62 -116,-95 -22,-20 -35,-27 -56,-47 -98,-94 -147,-130 -262,-245 -36,-36 -81,-63 -108,-104 38,10 93,62 127,85 219,145 460,270 716,342l254 59c44,9 57,27 80,-4 -38,-8 -152,-88 -190,-115l-261 -204c-33,-29 -47,-48 -84,-77 -58,-47 -100,-108 -153,-160l-241 -293c-60,-73 -110,-156 -162,-236 -32,-50 -99,-146 -111,-201 34,24 65,77 95,107 37,38 69,69 106,106 70,72 156,128 236,187 79,58 176,110 266,150l313 110c-3,-35 -9,-31 -32,-53 -48,-46 -84,-101 -127,-153 -175,-215 -334,-482 -436,-740l-77 -202c-47,-143 -79,-286 -111,-432 -29,-136 -47,-401 -47,-545 0,-158 22,-340 43,-491 24,-178 68,-366 125,-535 51,-151 200,-557 289,-659 -1,51 -15,100 -17,161 -1,46 -11,119 -16,162 -12,115 -9,262 -9,380 0,453 56,782 174,1197 33,117 74,227 122,335 120,274 266,540 460,768 26,31 44,52 71,81 54,57 125,150 185,196 69,53 158,150 287,247 89,66 174,131 273,184 64,35 136,89 206,107 -11,-40 -100,-93 -134,-120 -233,-190 -434,-417 -614,-656 -246,-326 -428,-719 -549,-1111l-76 -304c-25,-96 -40,-227 -49,-332 -39,-448 13,-842 145,-1268 30,-94 73,-195 116,-282 9,-18 14,-32 23,-53 20,-41 36,-66 57,-104 21,-39 36,-66 58,-103 79,-131 167,-261 267,-376 207,-236 335,-353 572,-546 242,-197 611,-409 911,-529 30,-12 82,-38 119,-41l0 -17c-129,0 -608,130 -758,173 -186,53 -495,168 -674,266 -227,125 -296,148 -514,299 -135,94 -276,193 -393,310l-122 114c-23,25 -30,39 -55,64 -42,42 -71,75 -110,119 -14,15 -13,17 -26,33 -135,160 -251,332 -360,512 -84,138 -177,328 -231,480 -11,29 -22,53 -32,78 -12,31 -19,56 -30,89 -62,186 -117,360 -150,561 -11,65 -23,125 -33,195 -32,226 -42,428 -42,670z"/>
   <path class="fil0" d="M12962 8509l-8 17 8 -17zm0 0l0 0zm-8 17c-7,27 -38,72 -53,99 -88,157 -253,398 -381,534 -142,152 -232,250 -393,386 -71,59 -286,232 -367,251l0 17c95,0 262,-53 341,-75 57,-15 100,-34 151,-51 32,-10 44,-16 73,-29 28,-12 53,-20 79,-31 141,-64 271,-146 401,-225 50,-30 80,-60 124,-89 -14,50 -113,117 -151,155 -121,119 -248,233 -383,336 -156,119 -315,234 -481,341l-192 112c-211,114 -427,209 -658,274 -39,11 -139,25 -159,52 106,0 396,-65 521,-96l396 -121c30,-11 47,-21 79,-31 58,-21 98,-37 153,-59 197,-78 373,-180 558,-280 134,-72 252,-163 373,-253 44,-33 75,-61 118,-95 41,-32 74,-66 111,-100 23,-19 33,-23 55,-46l436 -504c62,-83 112,-171 165,-259 41,-68 79,-131 110,-203 81,-194 137,-258 210,-527 52,-191 108,-393 138,-590 4,-28 15,-57 15,-95l-17 0c-7,75 -50,152 -77,220l-206 403c-84,155 -275,397 -407,499 -98,77 -251,213 -369,241 12,-18 17,-20 31,-38l144 -220c23,-35 34,-61 55,-96 56,-92 106,-200 142,-299l42 -110c13,-40 26,-64 38,-106l61 -227c56,-219 80,-420 80,-665 0,-435 -106,-816 -260,-1205 -30,-75 -62,-130 -93,-203l-78 -142c-10,-17 -17,-33 -27,-50 -28,-50 -69,-145 -118,-178 12,49 80,183 102,237 33,83 60,167 88,259 51,171 99,407 98,587 0,112 3,226 -13,326 -18,109 -35,193 -62,285 -26,89 -58,164 -97,242 -36,73 -79,152 -133,214 0,-76 2,-153 1,-229 -2,-156 -40,-481 -75,-628 -15,-64 -25,-123 -41,-188l-106 -368c-51,-153 -114,-309 -189,-454l-19 -40c-27,-52 -56,-101 -84,-153 -30,-54 -58,-97 -90,-148 -91,-146 -193,-270 -298,-404 -20,-27 -36,-38 -55,-63 -19,-25 -35,-39 -58,-62 -40,-40 -74,-74 -114,-114 -21,-21 -37,-39 -59,-59 -24,-22 -39,-31 -64,-55l-124 -105c-47,-37 -86,-67 -135,-101 -48,-34 -86,-60 -136,-93 -165,-111 -421,-258 -608,-332 -143,-56 -280,-122 -430,-163 -150,-41 -301,-97 -456,-128 -66,-13 -128,-29 -195,-42 -32,-7 -65,-11 -101,-17 -37,-7 -55,-16 -103,-16 28,38 111,49 153,68l492 252c19,11 27,18 47,30 32,19 63,37 93,59 115,81 237,156 343,249 188,165 364,325 520,522 206,263 369,550 481,866 143,406 197,947 138,1389l-34 195c-48,283 -186,641 -304,890 -30,63 -67,129 -103,193 -105,188 -226,370 -364,534 -63,75 -210,251 -289,312 -98,76 -181,169 -283,241 -20,15 -27,14 -35,42 82,-19 386,-220 442,-261l498 -459c16,-20 28,-29 44,-49 247,-305 447,-643 577,-1014 82,-232 178,-612 192,-859 3,-61 14,-107 17,-161 7,-144 16,-533 -1,-693 -6,-53 -13,-99 -16,-162 -3,-48 -17,-112 -17,-161l28 48c105,198 191,401 259,614 133,422 214,924 145,1405 -20,139 -40,266 -75,399 -41,161 -96,320 -165,470l-104 208c-110,206 -249,392 -394,572 -15,19 -15,22 -35,41 -23,22 -29,18 -32,53 30,-2 127,-34 158,-45 146,-57 281,-125 411,-207l234 -181 205 -210z"/>
   <path class="fil0" d="M10050 13928c144,33 348,45 483,76l118 -550c20,85 136,400 177,534 8,29 20,49 26,75l246 34c23,-44 38,-86 62,-133 13,-26 20,-41 33,-69 9,-19 21,-47 32,-69 22,-46 41,-91 65,-138 21,-42 38,-109 70,-133 0,64 6,98 14,156 7,57 9,109 19,158 21,98 21,208 43,304 65,0 226,27 293,38 200,32 170,41 144,-102 -18,-99 -22,-193 -41,-289l-62 -429c-8,-58 -13,-95 -22,-148 -15,-92 -25,-196 -41,-289 -34,-202 57,-137 -375,-201 -29,-4 -50,-9 -73,-11l-119 229c-16,32 -110,202 -118,237 -29,-21 -76,-181 -88,-217 -17,-49 -94,-310 -130,-327l-409 -57 -217 816c-20,90 -126,458 -130,505z"/>
   <path class="fil0" d="M8788 7104l0 0zm0 0c92,61 66,58 181,115 56,29 105,45 170,51 34,3 29,-5 64,-6 -16,25 -35,46 -54,73 -107,155 -141,321 -132,512 10,231 167,659 390,787 31,18 60,27 93,42 -16,-59 -132,-35 -241,-361 -13,-39 -22,-68 -36,-108l-35 -117c-11,-45 -20,-75 -28,-123 -6,-33 -16,-101 -17,-137 -4,-154 93,-358 161,-442 52,-65 236,-162 332,-192 32,-10 34,-5 50,-27 -59,0 -239,51 -245,-25 -5,-53 92,-135 126,-186 -33,2 -107,64 -198,89 -101,28 -156,33 -245,-10l-288 -143c-164,-98 -350,-197 -555,-182 -142,11 -348,165 -365,229 81,0 150,-35 324,-10 97,14 177,46 257,98 149,97 241,304 241,470 -111,54 -360,101 -460,-14l-100 -137c-44,-75 -8,-58 -50,-69 -2,92 -81,341 120,490 41,31 92,59 159,61l-226 155c-269,228 -487,533 -485,911 2,261 11,411 109,654 54,134 104,214 181,327 19,28 33,46 55,72 100,125 199,217 325,309 36,27 118,93 160,103l-241 -352c-88,-134 -138,-256 -181,-411 -21,-79 -43,-158 -52,-244 -30,-274 7,-515 100,-772 145,-399 233,-435 459,-727 13,-17 16,-20 31,-36 17,-18 18,-24 34,-42 121,-138 310,-178 213,-480 -34,-106 -88,-147 -101,-195z"/>
   <path class="fil0" d="M8848 13200c0,-184 160,-348 330,-348l68 0c141,0 265,117 303,221 116,318 -218,573 -487,446 -63,-30 -110,-64 -147,-116 -34,-48 -67,-120 -67,-203zm-390 -17c0,204 20,332 149,503 50,66 72,86 133,138 296,251 779,217 1050,-55 308,-310 298,-769 -4,-1067 -363,-358 -1007,-265 -1244,191 -36,69 -84,190 -84,290z"/>
   <path class="fil0" d="M4784 13360c104,-69 287,-71 387,20 108,98 122,401 -54,542 -93,74 -152,95 -275,132 -97,29 -67,21 -67,-84 0,-59 -5,-146 1,-202 14,-119 8,-274 8,-408zm-407 -220c0,57 3,122 0,178 -2,38 -8,41 -9,84l-16 441c1,246 -17,468 -17,711 104,0 179,-13 280,-33 545,-109 1157,-368 1063,-1039 -43,-305 -267,-494 -581,-494 -129,0 -120,0 -252,19 -91,14 -315,71 -394,105l-74 28z"/>
   <path class="fil0" d="M6342 13572l87 -293c20,-60 11,-76 40,-96 3,38 101,323 118,355 -49,1 -169,34 -245,34zm-68 381c118,-27 272,-23 389,-51 14,57 72,148 85,203 66,-5 494,-69 525,-84l-215 -488c-59,-119 -152,-353 -218,-493l-143 -332c-47,0 -441,61 -461,81 -9,9 -27,60 -33,77 -53,150 -156,382 -216,546l-311 782c-34,80 -26,57 210,31 328,-35 292,11 332,-108 16,-50 36,-122 56,-164z"/>
   <path class="fil0" d="M12658 13597c-97,0 -117,-28 -187,-33 1,-39 9,-34 9,-77l0 -211c53,1 152,44 187,66 151,95 142,255 -9,255zm-161 762c0,-138 17,-267 17,-406 66,6 416,165 599,-53 116,-139 129,-423 42,-588 -76,-141 -262,-258 -406,-297l-625 -139c-27,-5 -41,-16 -42,120 -2,163 -12,290 -17,449 -1,44 -9,58 -9,110 0,39 2,80 1,119 -2,44 -9,58 -9,110l-10 337c-18,165 -14,138 69,154l390 84z"/>
   <path class="fil0" d="M7222 13250l0 110c0,251 178,490 371,560 222,82 465,106 693,30 34,-11 49,-24 79,-31l-34 -576c-24,7 -93,80 -150,122 -246,182 -476,-11 -476,-172 0,-110 0,-157 82,-240 117,-116 351,-84 498,15 12,9 4,7 21,13 0,-172 -9,-317 -9,-491 -149,-35 -294,-50 -449,-18 -246,50 -438,140 -556,376 -37,76 -70,193 -70,302z"/>
   <path class="fil0" d="M9686 7171l34 0 0 -8c-5,0 -14,0 -17,0 -15,5 -9,3 -17,8z"/>
  </g>
 </g>
</svg>
