<svg id="Layer_1" data-name="Layer 1" xmlns="http://www.w3.org/2000/svg" viewBox="0 0 114.97 114.97"><defs><style>.cls-1{fill:#fff;}</style></defs><title>icon-facebook</title><path class="cls-1" d="M1494.37,274.35a57.49,57.49,0,1,1,57.49-57.49A57.55,57.55,0,0,1,1494.37,274.35Zm0-109a51.49,51.49,0,1,0,51.49,51.49A51.55,51.55,0,0,0,1494.37,165.37Z" transform="translate(-1436.89 -159.37)"/><path class="cls-1" d="M1484.94,254.67h15V218.32h10l1.33-12.53H1500l0-6.27c0-3.27.31-5,5-5h6.26V182h-10c-12,0-16.27,6.08-16.27,16.3v7.52h-7.5v12.53h7.5v36.35Z" transform="translate(-1436.89 -159.37)"/></svg>